{"title":"The.Forest.2016.WEBRip.480p.x264.AAC-VYTO [P2PDL]","uid":13990998,"size":373207828,"categoryP":"video","categoryS":"movies","magnet":"?xt=urn:btih:9cc57dee2cd653b2637807f2b6fa700c224e6808&amp;dn=The.Forest.2016.WEBRip.480p.x264.AAC-VYTO+%5BP2PDL%5D&amp;tr=udp%3A%2F%2Ftracker.leechers-paradise.org%3A6969&amp;tr=udp%3A%2F%2Fzer0day.ch%3A1337&amp;tr=udp%3A%2F%2Fopen.demonii.com%3A1337&amp;tr=udp%3A%2F%2Ftracker.coppersurfer.tk%3A6969&amp;tr=udp%3A%2F%2Fexodus.desync.com%3A6969","seeders":0,"leechers":3,"uploader":"VYTOP2PDL","files":7,"time":1458706879,"description":"____    ____ ____    ____ .___________.  ______   \r\n     /   /      /   / |           | /  __    \r\n    /   /      /   /  `---|  |----`|  |  |  | \r\n        /     _    _/       |  |     |  |  |  | \r\n       /        |  |         |  |     |  `--'  | \r\n    __/         |__|         |__|      ______/  \r\n                                                  \r\nPresenting Small Encodes with quality for years!\r\n                                                                                                   \r\n                                                                                                   \r\n\r\n\r\nThe.Forest.2016.WEBRip.480p.x264.AAC-VYTO\r\n\r\n\r\nGenre:  Horror, Mystery, Thriller  \nhttp://www.imdb.com/title/tt3387542/\r\n\r\n\r\nFormat                                   : MPEG-4\r\nFile size                                : 351 MiB\r\nDuration                                 : 1h 33mn\r\nOverall bit rate                         : 526 Kbps\r\n\r\nVideo\r\nFormat                                   : AVC\r\nBit rate                                 : 491 Kbps\r\nWidth                                    : 720 pixels\r\nHeight                                   : 384 pixels\r\nDisplay aspect ratio                     : 1.85:1\r\nFrame rate mode                          : Constant\r\nFrame rate                               : 23.976 fps\r\nBit depth                                : 8 bits\r\nStream size                              : 327 MiB (93%)\r\nWriting library                          : x264\r\n\r\nAudio\r\nFormat                                   : AAC\r\nBit rate mode                            : Variable\r\nBit rate                                 : 31.9 Kbps\r\nChannel(s)                               : 2 channels\r\nChannel positions                        : Front: L R\r\nSampling rate                            : 48.0 KHz\r\nStream size                              : 21.3 MiB (6%)\r\nLanguage                                 : English\r\n\r\nSubtitle                                 : Yes (English)\r\n\r\nScreen Shot: (Click to view)\r\n \nhttp://ititli.com/XGo \nhttp://ititli.com/XGG \nhttp://ititli.com/XGH \nhttp://ititli.com/XGM \nhttp://ititli.com/XGU \nhttp://ititli.com/XGh \nhttp://ititli.com/XGs \nhttp://ititli.com/XGY \nhttp://ititli.com/XG4\r\n\r\n----------------------------------------------------------------------------------------------------\r\n\r\n\r\nEncoder Notes: Looking For Early Access To Anything You Can Provide WEBDL, DVDScr, DVDR, BluRay,\r\nDirect Audio, Music Releases and Seedboxes. If You Got anything to offer please contact us.\r\n\r\nSupport us by donating BC - 1FgwdzPsd1y25Gea8wP1qni35uGCtmkRCD\r\n\r\nFind us and join us!","torrent":{"xt":"urn:btih:9cc57dee2cd653b2637807f2b6fa700c224e6808","amp;dn":"The.Forest.2016.WEBRip.480p.x264.AAC-VYTO+%5BP2PDL%5D","amp;tr":["udp%3A%2F%2Ftracker.leechers-paradise.org%3A6969","udp%3A%2F%2Fzer0day.ch%3A1337","udp%3A%2F%2Fopen.demonii.com%3A1337","udp%3A%2F%2Ftracker.coppersurfer.tk%3A6969","udp%3A%2F%2Fexodus.desync.com%3A6969"],"infoHash":"9cc57dee2cd653b2637807f2b6fa700c224e6808","infoHashBuffer":{"type":"Buffer","data":[156,197,125,238,44,214,83,178,99,120,7,242,182,250,112,12,34,78,104,8]},"announce":[],"urlList":[]}}